<svg id="zoeva-logo" data-name="Zoeva Logo" xmlns="http://www.w3.org/2000/svg" xmlns:xlink="http://www.w3.org/1999/xlink" width="160" height="38" viewBox="0 0 160 38">
    <g>
        <path d="M18.03,34.605H3.763L19.17,3.988l.014-.032a1.429,1.429,0,0,0-1.32-2H1.434a1.431,1.431,0,1,0,.017,2.863H15.539L.171,35.367a1.413,1.413,0,0,0-.171.67,1.441,1.441,0,0,0,1.444,1.434H18.026a1.433,1.433,0,1,0,0-2.866" transform="translate(0 -1.461)" fill="#221c35"></path>
        <path d="M96.2,0H96.14A18.345,18.345,0,0,0,77.772,18.281,18.4,18.4,0,1,0,96.2,0m15.487,18.218v.063a15.387,15.387,0,1,1,0-.063" transform="translate(-58.249)" fill="#221c35"></path>
        <path d="M273.434,22.9a1.436,1.436,0,0,0-1.357.937,15.637,15.637,0,0,1-14.512,9.8,15.387,15.387,0,1,1,.063-30.773,15.529,15.529,0,0,1,10.167,3.767l-9.2,11.316a1.414,1.414,0,0,0-.254.42,1.32,1.32,0,0,0,.4,1.518,1.384,1.384,0,0,0,1.971-.16c.856-1.061,9.956-12.247,10.047-12.362a1.525,1.525,0,0,0,.308-1.113,1.447,1.447,0,0,0-.431-.9A18.57,18.57,0,0,0,257.564,0a18.35,18.35,0,0,0-18.376,18.28,18.44,18.44,0,0,0,35.583,6.572,1.4,1.4,0,0,0,.1-.522,1.433,1.433,0,0,0-1.436-1.428" transform="translate(-179.144 0)" fill="#221c35"></path>
        <path d="M410.107,1.951a1.452,1.452,0,0,0-1.288.794l-15.286,30.43L378.247,2.745a1.443,1.443,0,0,0-2.731.639,1.426,1.426,0,0,0,.135.594l.008.017,16.57,32.916a1.441,1.441,0,0,0,2.608,0l16.57-32.916.008-.017a1.421,1.421,0,0,0-1.308-2.027" transform="translate(-281.25 -1.461)" fill="#221c35"></path>
        <path d="M503.278,6.51l6.192,12.353H497.08Zm17.857,29.138-16.562-32.9a1.456,1.456,0,0,0-1.3-.807,1.423,1.423,0,0,0-1.3.823L485.445,35.6a1.5,1.5,0,0,0-.19.7,1.44,1.44,0,0,0,1.442,1.435,1.457,1.457,0,0,0,1.289-.793l7.665-15.219H510.9l7.673,15.232a1.438,1.438,0,1,0,2.561-1.307" transform="translate(-363.441 -1.457)" fill="#221c35"></path>
    </g>
  </svg>